<svg width="17.656" height="17.999" viewBox="0 0 17.656 17.999" fill="none" xmlns="http://www.w3.org/2000/svg">
<path fill-rule="evenodd" clip-rule="evenodd" d="M11.0817 12.5235C10.0017 13.3327 8.68819 13.7695 7.33866 13.7684C5.63984 13.7517 4.01723 13.0609 2.82768 11.848C1.63812 10.635 0.979052 8.99928 0.995415 7.30047C0.979305 5.60165 1.63862 3.966 2.82835 2.75325C4.01808 1.54049 5.64079 0.84995 7.3396 0.833496C9.03841 0.84995 10.6611 1.54049 11.8509 2.75325C13.0406 3.966 13.6999 5.60165 13.6838 7.30047C13.6872 8.66902 13.2599 10.004 12.4626 11.1162L17.3853 16.1343C17.5686 16.3227 17.6712 16.5751 17.6712 16.838C17.6712 17.1008 17.5686 17.3533 17.3853 17.5416C17.2955 17.6338 17.1882 17.707 17.0697 17.7569C16.9512 17.8069 16.8239 17.8327 16.6953 17.8327C16.5667 17.8327 16.4394 17.8069 16.3209 17.7569C16.2024 17.707 16.0951 17.6338 16.0054 17.5416L11.0817 12.5235ZM11.7306 7.30141C11.714 8.1665 11.4423 9.00744 10.9497 9.71872C10.457 10.43 9.7652 10.9799 8.96114 11.2995C8.15708 11.6191 7.27654 11.6942 6.42999 11.5152C5.58345 11.3363 4.8086 10.9113 4.20267 10.2937C3.59674 9.67599 3.1867 8.89315 3.02401 8.04333C2.86132 7.19351 2.95322 6.31457 3.28818 5.51678C3.62313 4.719 4.18623 4.0379 4.90682 3.55893C5.62741 3.07996 6.47341 2.82447 7.33866 2.8245C8.51436 2.83671 9.63719 3.31486 10.4608 4.154C11.2843 4.99315 11.7413 6.12474 11.7315 7.30047L11.7306 7.30141Z" fill="#000000"/>
</svg>
